<svg width="24" height="25" viewBox="0 0 24 25" fill="none" xmlns="http://www.w3.org/2000/svg">
<g id="instagram">
<path id="Vector" d="M17 2.01611H7C4.23858 2.01611 2 4.25469 2 7.01611V17.0161C2 19.7775 4.23858 22.0161 7 22.0161H17C19.7614 22.0161 22 19.7775 22 17.0161V7.01611C22 4.25469 19.7614 2.01611 17 2.01611Z" stroke="#02897A" stroke-width="2" stroke-linecap="round" stroke-linejoin="round"/>
<path id="Vector_2" d="M16.0002 11.3862C16.1236 12.2184 15.9815 13.0684 15.594 13.8152C15.2065 14.562 14.5933 15.1676 13.8418 15.5458C13.0903 15.9241 12.2386 16.0558 11.408 15.9221C10.5773 15.7884 9.80996 15.3963 9.21503 14.8013C8.62011 14.2064 8.22793 13.439 8.09426 12.6084C7.9606 11.7777 8.09226 10.9261 8.47052 10.1745C8.84878 9.42302 9.45438 8.80991 10.2012 8.42241C10.948 8.03491 11.7979 7.89276 12.6302 8.01617C13.4791 8.14206 14.265 8.53763 14.8719 9.14448C15.4787 9.75132 15.8743 10.5372 16.0002 11.3862Z" stroke="#02897A" stroke-width="2" stroke-linecap="round" stroke-linejoin="round"/>
<path id="Vector_3" d="M17.5 6.51611H17.51" stroke="#02897A" stroke-width="2" stroke-linecap="round" stroke-linejoin="round"/>
</g>
</svg>
